#!OML:ASF F:\VICON\USERDATA\INSTALL\rory3\rory3.ASF
:FULLY-SPECIFIED
:DEGREES
291
root 4.84621 16.9282 2.70486 9.20149 -17.1344 -0.942993
lowerback 1.30099 0.814413 0.106648
upperback -2.87535 1.07176 -0.499045
thorax -3.67323 0.521846 -0.620892
lowerneck -12.325 1.14948 -0.572291
upperneck 41.6627 1.92507 -0.594618
head 17.352 0.504336 0.138056
rclavicle 2.18663e-014 -1.53064e-014
rhumerus 9.74299 16.9177 -33.4227
rradius 112.375
rwrist -39.9825
rhand -2.8751 -40.985
rfingers 7.12502
rthumb 22.8338 -69.6533
lclavicle 2.18663e-014 -1.53064e-014
lhumerus 17.4982 -2.58259 28.6455
lradius 93.688
lwrist 62.7925
lhand -24.1111 -29.7582
lfingers 7.12502
lthumb 2.37006 0.208336
rfemur -54.6118 -2.75421 15.3361
rtibia 34.3256
rfoot 37.0105 -3.95504
rtoes 2.56342
lfemur -26.5106 2.46319 -30.1398
ltibia 37.4369
lfoot -18.6397 9.47358
ltoes 11.6431
292
root 4.84678 16.9209 2.70452 9.203 -17.1965 -1.23501
lowerback 1.37044 0.851968 0.35476
upperback -2.80246 1.13216 -0.4419
thorax -3.6328 0.546163 -0.704102
lowerneck -12.3781 1.13074 -0.338722
upperneck 41.6301 1.9581 -0.915668
head 17.3569 0.510853 -0.0447475
rclavicle -3.07247e-014 -1.90833e-014
rhumerus 9.64086 17.1823 -33.8388
rradius 112.134
rwrist -39.761
rhand -2.862 -41.1353
rfingers 7.12502
rthumb 22.8464 -69.8021
lclavicle -3.07247e-014 -1.90833e-014
lhumerus 17.2844 -2.74961 28.9975
lradius 93.8469
lwrist 63.1394
lhand -23.4394 -30.0029
lfingers 7.12502
lthumb 3.01872 -0.0444907
rfemur -54.5692 -2.56722 15.693
rtibia 34.2957
rfoot 36.9633 -4.3439
rtoes 3.20731
lfemur -26.605 2.69606 -29.8603
ltibia 37.7316
lfoot -18.6859 9.35895
ltoes 11.7857
293
root 4.84708 16.915 2.7056 9.14317 -17.3436 -1.3455
lowerback 1.34139 0.924732 0.453549
upperback -2.63589 1.23238 -0.458866
thorax -3.4402 0.594576 -0.778704
lowerneck -12.5171 1.07789 -0.257942
upperneck 41.6106 1.88199 -0.985237
head 17.384 0.482948 -0.103647
rclavicle -3.44891e-014 -5.1684e-015
rhumerus 9.39625 17.3192 -34.1981
rradius 111.921
rwrist -39.716
rhand -2.82632 -40.6135
rfingers 7.12502
rthumb 22.8806 -69.2761
lclavicle -3.44891e-014 -5.1684e-015
lhumerus 17.2862 -2.90467 29.379
lradius 93.9591
lwrist 63.1747
lhand -23.4233 -30.0724
lfingers 7.12502
lthumb 3.0343 -0.114276
rfemur -54.5152 -2.34752 15.8206
rtibia 34.2695
rfoot 36.8789 -5.31616
rtoes 5.13939
lfemur -26.6388 2.95303 -29.7782
ltibia 37.9377
lfoot -18.7604 9.3038
ltoes 11.8364
294
root 4.84953 16.91 2.71033 9.04908 -17.3946 -1.23744
lowerback 1.24666 0.943108 0.408347
upperback -2.44175 1.25307 -0.553277
thorax -3.18462 0.606589 -0.846998
lowerneck -12.756 0.981221 -0.486157
upperneck 41.6776 1.61959 -0.541645
head 17.4733 0.399019 0.095481
rclavicle 3.64024e-014 -6.36111e-015
rhumerus 9.09051 17.389 -34.5517
rradius 111.721
rwrist -39.6055
rhand -2.62117 -40.4511
rfingers 7.12502
rthumb 23.0775 -69.0891
lclavicle 3.64024e-014 -6.36111e-015
lhumerus 17.3494 -3.02141 29.7233
lradius 94.0336
lwrist 63.0414
lhand -23.9396 -28.9616
lfingers 7.12502
lthumb 2.53566 1.00305
rfemur -54.5219 -2.32342 15.7639
rtibia 34.313
rfoot 36.7956 -5.47168
rtoes 6.17003
lfemur -26.6278 3.16334 -29.9289
ltibia 38.0261
lfoot -18.8243 9.13601
ltoes 11.983
295
root 4.85638 16.9061 2.71632 8.9858 -17.2103 -1.00996
lowerback 1.09626 0.870077 0.340795
upperback -2.54283 1.14944 -0.672818
thorax -3.20477 0.554474 -0.926411
lowerneck -12.1393 0.960765 -0.603437
upperneck 41.6424 1.46037 -0.18883
head 17.2841 0.364892 0.245336
rclavicle -9.03973e-014 2.14687e-014
rhumerus 8.48952 17.8421 -35.087
rradius 111.567
rwrist -39.425
rhand -2.20727 -40.3207
rfingers 7.12502
rthumb 23.4746 -68.9086
lclavicle -9.03973e-014 2.14687e-014
lhumerus 17.0283 -3.63389 30.0227
lradius 94.282
lwrist 62.787
lhand -24.9671 -25.2803
lfingers 7.12502
lthumb 1.54332 4.69391
rfemur -54.6249 -2.66164 15.6873
rtibia 34.4321
rfoot 36.8073 -4.06475
rtoes 4.83085
lfemur -26.605 3.18889 -30.2019
ltibia 38.0529
lfoot -18.8677 8.90192
ltoes 12.2059
296
root 4.86353 16.8986 2.72291 8.90254 -16.9137 -0.746793
lowerback 1.12713 0.740037 0.188248
upperback -2.61591 0.969177 -0.734397
thorax -3.30237 0.466889 -0.898628
lowerneck -11.957 0.989443 -0.616911
upperneck 41.6794 1.47251 -0.114735
head 17.2564 0.377123 0.282224
rclavicle -2.90226e-014 8.74653e-015
rhumerus 8.3224 18.2394 -35.5184
rradius 111.347
rwrist -39.4273
rhand -1.9568 -40.2283
rfingers 7.12502
rthumb 23.7148 -68.7852
lclavicle -2.90226e-014 8.74653e-015
lhumerus 16.6229 -4.14166 30.3709
lradius 94.5706
lwrist 62.3672
lhand -25.0489 -21.5682
lfingers 7.12502
lthumb 1.46437 8.40652
rfemur -54.7146 -3.21549 15.6488
rtibia 34.5348
rfoot 36.7994 -2.47748
rtoes 3.04639
lfemur -26.5374 3.16184 -30.5189
ltibia 38.1054
lfoot -18.9069 8.68264
ltoes 12.144
297
root 4.86623 16.8884 2.72513 8.82745 -16.7526 -0.765269
lowerback 1.31068 0.687348 0.221162
upperback -2.61063 0.900265 -0.713325
thorax -3.4016 0.431622 -0.895313
lowerneck -12.0726 0.93824 -0.738021
upperneck 41.799 1.39629 -0.0302553
head 17.3533 0.336195 0.330479
rclavicle -2.34566e-014 -1.17283e-014
rhumerus 8.21251 18.5512 -35.8025
rradius 111.183
rwrist -39.4259
rhand -2.02288 -40.2955
rfingers 7.12502
rthumb 23.6514 -68.8606
lclavicle -2.34566e-014 -1.17283e-014
lhumerus 16.2833 -4.56678 30.728
lradius 94.706
lwrist 61.9599
lhand -24.6383 -21.8363
lfingers 7.12502
lthumb 1.86088 8.13534
rfemur -54.6831 -3.48591 15.8514
rtibia 34.5226
rfoot 36.7792 -1.9468
rtoes 2.20556
lfemur -26.4815 3.29874 -30.5344
ltibia 38.2672
lfoot -19.0295 8.54825
ltoes 11.7938
298
root 4.86531 16.8824 2.72353 8.83703 -16.8188 -1.04657
lowerback 1.3745 0.763748 0.453255
upperback -2.50966 1.01152 -0.665638
thorax -3.32837 0.482491 -0.980903
lowerneck -12.1662 0.854185 -0.830458
upperneck 41.775 1.25802 0.0646955
head 17.3625 0.278906 0.367159
rclavicle -1.08338e-014 -1.07344e-014
rhumerus 7.87321 18.6803 -36.0825
rradius 111.15
rwrist -39.2234
rhand -2.24924 -40.6557
rfingers 7.12502
rthumb 23.4343 -69.2487
lclavicle -1.08338e-014 -1.07344e-014
lhumerus 16.2529 -4.85201 31.1088
lradius 94.7301
lwrist 61.9551
lhand -23.9927 -26.0153
lfingers 7.12502
lthumb 2.4844 3.95
rfemur -54.5993 -3.25723 16.1939
rtibia 34.3667
rfoot 36.8518 -2.35655
rtoes 2.65768
lfemur -26.5886 3.56965 -30.251
ltibia 38.5618
lfoot -19.2667 8.41626
ltoes 11.746
299
root 4.86143 16.8753 2.71781 8.87955 -16.9512 -1.28825
lowerback 1.4118 0.872597 0.54971
upperback -2.401 1.16241 -0.599273
thorax -3.23367 0.557187 -0.972381
lowerneck -12.1139 0.784324 -0.983655
upperneck 41.5448 1.13982 0.20898
head 17.2145 0.230688 0.439171
rclavicle 3.45388e-015 1.59028e-014
rhumerus 7.38825 18.8407 -36.3149
rradius 111.143
rwrist -39.1617
rhand -2.92332 -40.8097
rfingers 7.12502
rthumb 22.7876 -69.4838
lclavicle 3.45388e-015 1.59028e-014
lhumerus 16.3816 -5.08833 31.5928
lradius 94.7342
lwrist 62.1139
lhand -23.9553 -26.4252
lfingers 7.12502
lthumb 2.52053 3.53965
rfemur -54.5415 -2.69479 16.3099
rtibia 34.1254
rfoot 37.0058 -3.00756
rtoes 3.41514
lfemur -26.855 3.84628 -29.9861
ltibia 38.9292
lfoot -19.4578 8.25254
ltoes 11.8754
